<?xml version="1.0" encoding="UTF-8" standalone="no"?><!-- Generator: Gravit.io --><svg xmlns="http://www.w3.org/2000/svg" xmlns:xlink="http://www.w3.org/1999/xlink" style="isolation:isolate" viewBox="0 0 312 162" width="312pt" height="162pt"><defs><clipPath id="_clipPath_27NZ9cJI9qoHz4Ye7sZFn3yA6ZIDWPiT"><rect x="0" y="0" width="312" height="162"/></clipPath></defs><g clip-path="url(#_clipPath_27NZ9cJI9qoHz4Ye7sZFn3yA6ZIDWPiT)"><clipPath id="_clipPath_PhqSZEf35wLsin05LSr4yLKBmn5hNBoe"><rect x="0" y="0" width="312" height="162" transform="matrix(1,0,0,1,0,0)" fill="rgb(255,255,255)"/></clipPath><g clip-path="url(#_clipPath_PhqSZEf35wLsin05LSr4yLKBmn5hNBoe)"><g><path d=" M 313 92.75 C 311.445 98.45 309.889 103.901 308.272 109.567 C 297.526 109.567 286.992 109.567 275.983 109.567 C 283.8 95.941 285.67 81.701 281.275 66.774 C 278.001 55.656 271.24 46.935 262.05 40.176 C 243.668 26.658 218.224 27.327 200.272 41.039 C 184.14 53.361 171.89 79.277 187.465 109.852 C 177.311 109.852 167.439 110.016 157.588 109.639 C 156.388 109.593 154.702 106.793 154.248 105.012 C 146.34 73.995 152.978 46.809 175.988 24.072 C 188.971 11.243 204.548 3.804 222.846 1.376 C 223 1 223.5 1 223.923 1.401 C 228.583 1.829 232.82 1.856 237.432 1.925 C 238.561 1.933 239.315 1.899 240.489 1.921 C 252.651 2.521 263.29 6.73 272.941 12.951 C 279.09 16.915 284.298 22.346 289.889 27.165 C 300.444 36.264 306.571 48.025 310.215 61.249 C 311.198 64.818 312.074 68.416 313 72 C 313 72 313 72.5 312.643 72.898 C 312.219 74.829 312.152 76.361 312.056 78.362 C 312.352 83.221 312.676 87.611 313 92 C 313 92 313 92.5 313 92.75 Z " fill="rgb(255,255,255)"/><path d=" M 291.115 136.33 C 277.694 151.327 261.264 160.462 240.161 162.04 C 238.589 162.048 237.825 162.078 236.603 162.07 C 233.07 162.069 229.995 162.105 226.585 162.1 C 225.499 162.372 224.75 162.686 224 163 C 223.556 163 223.111 163 222.333 163 C 218.889 162.226 215.785 161.426 212.667 160.682 C 197.01 156.947 184.013 148.752 173.195 136.418 C 174.588 135.491 175.862 135.033 177.135 135.032 C 213.628 134.993 250.121 134.985 286.614 135.056 C 288.115 135.059 289.615 135.887 291.115 136.33 Z " fill="rgb(240,80,36)"/><path d=" M 161.255 160.754 C 161.533 161.291 161.812 161.829 162.045 162.683 C 151.646 163 141.292 163 130.469 163 C 130.002 162.832 130.005 162.664 130.481 162.257 C 139.387 162.015 147.819 162.077 156.248 161.95 C 157.922 161.924 159.586 161.171 161.255 160.754 Z " fill="rgb(243,123,99)"/><path d=" M 1 161.5 C 1 161 1.459 160.985 1.949 161.282 C 12.62 161.717 22.802 161.855 32.983 161.993 C 32.989 162.161 32.994 162.329 32.999 162.748 C 23.167 163 13.333 163.024 3.5 162.957 C 2.665 162.951 1.833 162.333 1 161.5 Z " fill="rgb(102,107,109)"/><path d=" M 313 91.535 C 312.676 87.611 312.352 83.221 312.284 78.399 C 312.539 77.966 313 78 313 78 C 313 82.357 313 86.714 313 91.535 Z " fill="rgb(59,66,70)"/><path d=" M 237.058 1.883 C 232.82 1.856 228.583 1.829 224.173 1.401 C 228.025 1 232.049 1 236.537 1.222 C 237 1.443 237.058 1.883 237.058 1.883 Z " fill="rgb(129,133,135)"/><path d=" M 226.921 162.142 C 229.995 162.105 233.07 162.069 236.579 162.292 C 237.013 162.551 237 163 237 163 C 233.969 163 230.939 163 227.441 162.785 C 226.974 162.57 226.921 162.142 226.921 162.142 Z " fill="rgb(243,129,106)"/><path d=" M 313 77.583 C 313 78 312.539 77.966 312.312 77.929 C 312.152 76.361 312.219 74.829 312.643 73.148 C 313 74.389 313 75.778 313 77.583 Z " fill="rgb(105,109,112)"/><path d=" M 226.585 162.1 C 226.921 162.142 226.974 162.57 226.987 162.785 C 226.25 163 225.5 163 224.375 163 C 224.75 162.686 225.499 162.372 226.585 162.1 Z " fill="rgb(246,165,149)"/><path d=" M 237.375 163 C 237 163 237.013 162.551 237.038 162.33 C 237.825 162.078 238.589 162.048 239.731 162.08 C 240.11 162.143 240.032 162.569 240.016 162.784 C 239.25 163 238.5 163 237.375 163 Z " fill="rgb(246,165,149)"/><path d=" M 237.432 1.925 C 237.058 1.883 237 1.443 237 1.222 C 237.75 1 238.5 1 239.625 1 C 240 1 239.996 1.436 240.032 1.651 C 239.315 1.899 238.561 1.933 237.432 1.925 Z " fill="rgb(177,179,180)"/><path d=" M 33.183 161.702 C 22.802 161.855 12.62 161.717 2.173 161.236 C 17.04 130.494 32.153 100.086 47.307 69.698 C 58.462 47.332 69.67 24.992 80.92 2.291 C 81.988 3.332 83.203 4.616 83.963 6.129 C 100.914 39.853 117.815 73.602 134.411 107.863 C 123.835 108.593 113.574 108.807 103.313 109.021 C 101.883 106.268 100.453 103.515 98.963 100.1 C 98.588 98.962 98.275 98.486 97.961 98.01 C 96.276 94.79 94.59 91.571 92.845 87.682 C 92.511 86.679 92.237 86.344 91.963 86.01 C 91.271 84.772 90.578 83.534 89.836 81.655 C 89.511 80.679 89.237 80.344 88.963 80.01 C 88.278 78.761 87.594 77.511 86.847 75.624 C 86.514 74.655 86.243 74.324 85.972 73.993 C 85.972 73.993 85.822 73.844 85.805 73.419 C 85.515 72.66 85.243 72.326 84.972 71.993 C 83.888 70.16 82.803 68.326 81.485 66.097 C 65.342 98.085 49.363 129.748 33.183 161.702 Z " fill="rgb(255,255,255)"/><path d=" M 161.163 160.412 C 159.586 161.171 157.922 161.924 156.248 161.95 C 147.819 162.077 139.387 162.015 130.488 162.006 C 125.403 152.866 120.785 143.74 115.87 134.028 C 126.292 134.028 135.901 133.915 145.501 134.158 C 146.826 134.192 148.626 135.709 149.321 137.012 C 153.384 144.62 157.183 152.369 161.163 160.412 Z " fill="rgb(240,80,36)"/><path d=" M 291.447 136.125 C 289.615 135.887 288.115 135.059 286.614 135.056 C 250.121 134.985 213.628 134.993 177.135 135.032 C 175.862 135.033 174.588 135.491 173.082 136.12 C 172.212 135.998 171.574 135.491 170.263 134.45 C 171.845 134.192 172.559 133.974 173.273 133.973 C 211.937 133.957 250.601 133.946 289.264 134.088 C 289.799 134.09 293.661 131.781 291.447 136.125 Z " fill="rgb(239,62,0)"/><path d=" M 103.458 109.356 C 113.574 108.807 123.835 108.593 134.467 108.209 C 134.663 108.803 134.483 110.24 134.317 110.238 C 124.078 110.131 113.841 109.906 103.458 109.356 Z " fill="rgb(255,255,255)"/><path d=" M 97.969 98.309 C 98.275 98.486 98.588 98.962 98.944 99.742 C 98.65 99.566 98.313 99.087 97.969 98.309 Z " fill="rgb(20,33,40)"/><path d=" M 91.989 86.351 C 92.237 86.344 92.511 86.679 92.842 87.347 C 92.604 87.35 92.31 87.021 91.989 86.351 Z " fill="rgb(20,33,40)"/><path d=" M 88.989 80.351 C 89.237 80.344 89.511 80.679 89.842 81.347 C 89.604 81.35 89.31 81.021 88.989 80.351 Z " fill="rgb(20,33,40)"/><path d=" M 85.993 74.332 C 86.243 74.324 86.514 74.655 86.848 75.314 C 86.612 75.319 86.313 74.995 85.993 74.332 Z " fill="rgb(20,33,40)"/><path d=" M 84.994 72.333 C 85.243 72.326 85.515 72.66 85.849 73.323 C 85.613 73.326 85.314 73 84.994 72.333 Z " fill="rgb(20,33,40)"/></g></g></g></svg>